<?xml version="1.0" encoding="UTF-8" standalone="no"?>
<svg
   xmlns:dc="http://purl.org/dc/elements/1.1/"
   xmlns:cc="http://creativecommons.org/ns#"
   xmlns:rdf="http://www.w3.org/1999/02/22-rdf-syntax-ns#"
   xmlns:svg="http://www.w3.org/2000/svg"
   xmlns="http://www.w3.org/2000/svg"
   xmlns:sodipodi="http://sodipodi.sourceforge.net/DTD/sodipodi-0.dtd"
   xmlns:inkscape="http://www.inkscape.org/namespaces/inkscape"
   sodipodi:docname="dog.svg"
   viewBox="0 0 512 512"
   height="512"
   width="512"
   id="svg10"
   version="1.1"
   inkscape:version="1.0.2-2 (e86c870879, 2021-01-15)">
  <metadata
     id="metadata16">
    <rdf:RDF>
      <cc:Work
         rdf:about="">
        <dc:format>image/svg+xml</dc:format>
        <dc:type
           rdf:resource="http://purl.org/dc/dcmitype/StillImage" />
      </cc:Work>
    </rdf:RDF>
  </metadata>
  <defs
     id="defs14" />
  <sodipodi:namedview
     pagecolor="#ffffff"
     bordercolor="#666666"
     borderopacity="1"
     objecttolerance="10"
     gridtolerance="10"
     guidetolerance="10"
     inkscape:pageopacity="0"
     inkscape:pageshadow="2"
     inkscape:window-width="1920"
     inkscape:window-height="1027"
     id="namedview12"
     showgrid="false"
     inkscape:zoom="1.6347656"
     inkscape:cx="137.94027"
     inkscape:cy="233.36679"
     inkscape:window-x="1072"
     inkscape:window-y="668"
     inkscape:window-maximized="1"
     inkscape:current-layer="g18"
     inkscape:document-rotation="0" />
  <g
     inkscape:groupmode="layer"
     inkscape:label="Image"
     id="g18">
    <g
       inkscape:label="Delaunay"
       id="g579" />
    <path
       d="m 92.97955,116.83641 38.5373,18.3517 28.139,-20.1867 z"
       style="fill:#a07765;fill-opacity:1;stroke:#667765;stroke-width:1;stroke-linecap:round;stroke-linejoin:round;stroke-opacity:1"
       id="path712" />
    <path
       d="m 159.65585,115.00141 33.032,44.6547 17.74,-50.1601 z"
       style="fill:#ffebd2;fill-opacity:1;stroke:#667765;stroke-width:1;stroke-linecap:round;stroke-linejoin:round;stroke-opacity:1"
       id="path714" />
    <path
       d="m 92.97955,116.83641 18.9633,44.6547 19.574,-26.303 z"
       style="fill:#a07765;fill-opacity:1;stroke:#667765;stroke-width:1;stroke-linecap:round;stroke-linejoin:round;stroke-opacity:1"
       id="path716" />
    <path
       d="m 210.42785,109.49601 45.878,41.5961 -0.612,-38.5376 z"
       style="fill:#ffebd2;fill-opacity:1;stroke:#667765;stroke-width:1;stroke-linecap:round;stroke-linejoin:round;stroke-opacity:1"
       id="path718" />
    <path
       d="m 58.723748,141.91611 53.219102,19.575 -18.9633,-44.6547 z"
       style="fill:#a07765;fill-opacity:1;stroke:#667765;stroke-width:1;stroke-linecap:round;stroke-linejoin:round;stroke-opacity:1"
       id="path720" />
    <path
       d="m 192.68785,159.65611 63.618,-8.564 -45.878,-41.5961 z"
       style="fill:#ffebd2;stroke:#667765;stroke-width:1;stroke-linecap:round;stroke-linejoin:round;fill-opacity:1;stroke-opacity:1"
       id="path722" />
    <path
       d="m 131.51685,135.18811 61.171,24.468 -33.032,-44.6547 z"
       style="fill:#ffebd2;stroke:#667765;stroke-width:1;stroke-linecap:round;stroke-linejoin:round;fill-opacity:1;stroke-opacity:1"
       id="path724" />
    <path
       d="m 139.46985,192.68811 -7.953,-57.5 -19.574,26.303 z"
       style="fill:#ffebd2;fill-opacity:1;stroke:#667765;stroke-width:1;stroke-linecap:round;stroke-linejoin:round;stroke-opacity:1"
       id="path726" />
    <path
       d="m 139.46985,192.68811 53.218,-33.032 -61.171,-24.468 z"
       style="fill:#ffebd2;fill-opacity:1;stroke:#667765;stroke-width:1;stroke-linecap:round;stroke-linejoin:round;stroke-opacity:1"
       id="path728" />
    <path
       d="m 58.723748,141.91611 36.702502,52.607 16.5166,-33.032 z"
       style="fill:#a07765;fill-opacity:1;stroke:#667765;stroke-width:1;stroke-linecap:round;stroke-linejoin:round;stroke-opacity:1"
       id="path730" />
    <path
       d="m 192.68785,159.65611 63.618,24.468 v -33.032 z"
       style="fill:#ffebd2;fill-opacity:1;stroke:#667765;stroke-width:1;stroke-linecap:round;stroke-linejoin:round;stroke-opacity:1"
       id="path732" />
    <path
       d="m 37.313948,173.11411 58.112302,21.409 -36.702502,-52.607 z"
       style="fill:#a07765;fill-opacity:1;stroke:#667765;stroke-width:1;stroke-linecap:round;stroke-linejoin:round;stroke-opacity:1"
       id="path734" />
    <path
       d="m 139.46985,192.68811 42.207,9.176 11.011,-42.208 z"
       style="fill:#ffebd2;fill-opacity:1;stroke:#667765;stroke-width:1;stroke-linecap:round;stroke-linejoin:round;stroke-opacity:1"
       id="path736" />
    <path
       d="m 95.42625,194.52311 44.0436,-1.835 -27.527,-31.197 z"
       style="fill:#ffebd2;fill-opacity:1;stroke:#667765;stroke-width:1;stroke-linecap:round;stroke-linejoin:round;stroke-opacity:1"
       id="path738" />
    <path
       d="m 192.68785,159.65611 28.75,58.112 34.868,-33.644 z"
       style="fill:#ffebd2;fill-opacity:1;stroke:#667765;stroke-width:1;stroke-linecap:round;stroke-linejoin:round;stroke-opacity:1"
       id="path740" />
    <path
       d="m 181.67685,201.86411 39.761,15.904 -28.75,-58.112 z"
       style="fill:#ffebd2;fill-opacity:1;stroke:#667765;stroke-width:1;stroke-linecap:round;stroke-linejoin:round;stroke-opacity:1"
       id="path742" />
    <path
       d="m 221.43785,217.76811 34.868,2.447 v -36.091 z"
       style="fill:#ffebd2;fill-opacity:1;stroke:#667765;stroke-width:1;stroke-linecap:round;stroke-linejoin:round;stroke-opacity:1"
       id="path744" />
    <path
       d="m 148.64485,225.10911 33.032,-23.245 -42.207,-9.176 z"
       style="fill:#ffebd2;fill-opacity:1;stroke:#667765;stroke-width:1;stroke-linecap:round;stroke-linejoin:round;stroke-opacity:1"
       id="path746" />
    <path
       d="m 37.313948,173.11411 42.8196,56.277 15.292702,-34.868 z"
       style="fill:#a07765;fill-opacity:1;stroke:#667765;stroke-width:1;stroke-linecap:round;stroke-linejoin:round;stroke-opacity:1"
       id="path748" />
    <path
       d="m 148.64485,225.10911 23.857,15.904 9.175,-39.149 z"
       style="fill:#ffebd2;fill-opacity:1;stroke:#667765;stroke-width:1;stroke-linecap:round;stroke-linejoin:round;stroke-opacity:1"
       id="path750" />
    <path
       d="m 14.680748,211.65111 65.4528,17.74 -42.8196,-56.277 z"
       style="fill:#a07765;fill-opacity:1;stroke:#667765;stroke-width:1;stroke-linecap:round;stroke-linejoin:round;stroke-opacity:1"
       id="path752" />
    <path
       d="m 139.46985,192.68811 -18.964,53.219 28.139,-20.798 z"
       style="fill:#ffebd2;fill-opacity:1;stroke:#667765;stroke-width:1;stroke-linecap:round;stroke-linejoin:round;stroke-opacity:1"
       id="path754" />
    <path
       d="m 95.42625,194.52311 25.0796,51.384 18.964,-53.219 z"
       style="fill:#ffebd2;fill-opacity:1;stroke:#667765;stroke-width:1;stroke-linecap:round;stroke-linejoin:round;stroke-opacity:1"
       id="path756" />
    <path
       d="m 80.133548,229.39111 40.372302,16.516 -25.0796,-51.384 z"
       style="fill:#ffebd2;stroke:#667765;stroke-width:1;stroke-linecap:round;stroke-linejoin:round;fill-opacity:1;stroke-opacity:1"
       id="path758" />
    <path
       d="m 172.50185,241.01311 48.936,-23.245 -39.761,-15.904 z"
       style="fill:#ffebd2;stroke:#667765;stroke-width:1;stroke-linecap:round;stroke-linejoin:round;fill-opacity:1;stroke-opacity:1"
       id="path760" />
    <path
       d="m 172.50185,241.01311 40.373,9.176 8.563,-32.421 z"
       style="fill:#ffebd2;fill-opacity:1;stroke:#667765;stroke-width:1;stroke-linecap:round;stroke-linejoin:round;stroke-opacity:1"
       id="path762" />
    <path
       d="m 190.85285,264.87011 22.022,-14.681 -40.373,-9.176 z"
       style="fill:#ffebd2;fill-opacity:1;stroke:#667765;stroke-width:1;stroke-linecap:round;stroke-linejoin:round;stroke-opacity:1"
       id="path764" />
    <path
       d="m 212.87485,250.18911 43.431,-29.974 -34.868,-2.447 z"
       style="fill:#ffebd2;fill-opacity:1;stroke:#667765;stroke-width:1;stroke-linecap:round;stroke-linejoin:round;stroke-opacity:1"
       id="path766" />
    <path
       d="m 212.87485,250.18911 42.819,12.846 0.612,-42.82 z"
       style="fill:#818182;fill-opacity:1;stroke:#667765;stroke-width:1;stroke-linecap:round;stroke-linejoin:round;stroke-opacity:1"
       id="path768" />
    <path
       d="m 171.88985,267.92811 18.963,-3.058 -18.351,-23.857 z"
       style="fill:#ffebd2;fill-opacity:1;stroke:#667765;stroke-width:1;stroke-linecap:round;stroke-linejoin:round;stroke-opacity:1"
       id="path770" />
    <path
       d="m 14.680748,211.65111 53.2186,51.384 12.2342,-33.644 z"
       style="fill:#a07765;fill-opacity:1;stroke:#667765;stroke-width:1;stroke-linecap:round;stroke-linejoin:round;stroke-opacity:1"
       id="path772" />
    <path
       d="m 67.899348,263.03511 52.606502,-17.128 -40.372302,-16.516 z"
       style="fill:#ffebd2;fill-opacity:1;stroke:#667765;stroke-width:1;stroke-linecap:round;stroke-linejoin:round;stroke-opacity:1"
       id="path780" />
    <path
       d="m -1.2237022,252.63611 69.1230502,10.399 -53.2186,-51.384 z"
       style="fill:#a07765;fill-opacity:1;stroke:#667765;stroke-width:1;stroke-linecap:round;stroke-linejoin:round;stroke-opacity:1"
       id="path782" />
    <path
       d="m 190.85285,264.87011 25.692,17.739 -3.67,-32.42 z"
       style="fill:#c79a83;fill-opacity:1;stroke:#667765;stroke-width:1;stroke-linecap:round;stroke-linejoin:round;stroke-opacity:1"
       id="path784" />
    <path
       d="m 67.899348,263.03511 39.761502,22.021 12.845,-39.149 z"
       style="fill:#ffebd2;fill-opacity:1;stroke:#667765;stroke-width:1;stroke-linecap:round;stroke-linejoin:round;stroke-opacity:1"
       id="path786" />
    <path
       d="m 107.66085,285.05611 28.75,-7.34 -15.905,-31.809 z"
       style="fill:#ffebd2;fill-opacity:1;stroke:#667765;stroke-width:1;stroke-linecap:round;stroke-linejoin:round;stroke-opacity:1"
       id="path788" />
    <path
       d="m 216.54485,282.60911 39.149,-19.574 -42.819,-12.846 z"
       style="fill:#818182;fill-opacity:1;stroke:#667765;stroke-width:1;stroke-linecap:round;stroke-linejoin:round;stroke-opacity:1"
       id="path790" />
    <path
       d="m 21.409548,286.89111 46.4898,-23.856 -69.1230502,-10.399 z"
       style="fill:#a07765;fill-opacity:1;stroke:#667765;stroke-width:1;stroke-linecap:round;stroke-linejoin:round;stroke-opacity:1"
       id="path792" />
    <path
       d="m 136.41085,277.71611 25.692,12.846 9.787,-22.634 z"
       style="fill:#ffebd2;fill-opacity:1;stroke:#667765;stroke-width:1;stroke-linecap:round;stroke-linejoin:round;stroke-opacity:1"
       id="path794" />
    <path
       d="m 216.54485,282.60911 39.149,0.306 v -19.88 z"
       style="fill:#818182;fill-opacity:1;stroke:#667765;stroke-width:1;stroke-linecap:round;stroke-linejoin:round;stroke-opacity:1"
       id="path796" />
    <path
       d="m 21.409548,286.89111 43.4314,17.128 3.0584,-40.984 z"
       style="fill:#a07765;fill-opacity:1;stroke:#667765;stroke-width:1;stroke-linecap:round;stroke-linejoin:round;stroke-opacity:1"
       id="path798" />
    <path
       d="m 162.10285,290.56211 28.75,-25.692 -18.963,3.058 z"
       style="fill:#ffebd2;fill-opacity:1;stroke:#667765;stroke-width:1;stroke-linecap:round;stroke-linejoin:round;stroke-opacity:1"
       id="path800" />
    <path
       d="m 64.840948,304.01911 42.819902,-18.963 -39.761502,-22.021 z"
       style="fill:#ffebd2;fill-opacity:1;stroke:#667765;stroke-width:1;stroke-linecap:round;stroke-linejoin:round;stroke-opacity:1"
       id="path802" />
    <path
       d="m 138.85785,319.31211 23.245,-28.75 -25.692,-12.846 z"
       style="fill:#ffebd2;fill-opacity:1;stroke:#667765;stroke-width:1;stroke-linecap:round;stroke-linejoin:round;stroke-opacity:1"
       id="path804" />
    <path
       d="m 162.10285,290.56211 54.442,-7.953 -25.692,-17.739 z"
       style="fill:#c79a83;fill-opacity:1;stroke:#667765;stroke-width:1;stroke-linecap:round;stroke-linejoin:round;stroke-opacity:1"
       id="path806" />
    <path
       d="m 216.54485,282.60911 39.149,29.974 v -29.668 z"
       style="fill:#818182;fill-opacity:1;stroke:#667765;stroke-width:1;stroke-linecap:round;stroke-linejoin:round;stroke-opacity:1"
       id="path808" />
    <path
       d="m 107.66085,285.05611 31.197,34.256 -2.447,-41.596 z"
       style="fill:#ffebd2;fill-opacity:1;stroke:#667765;stroke-width:1;stroke-linecap:round;stroke-linejoin:round;stroke-opacity:1"
       id="path810" />
    <path
       d="m 38.537348,325.42911 26.3036,-21.41 -43.4314,-17.128 z"
       style="fill:#a07765;fill-opacity:1;stroke:#667765;stroke-width:1;stroke-linecap:round;stroke-linejoin:round;stroke-opacity:1"
       id="path812" />
    <path
       d="m 64.840948,304.01911 33.032102,21.41 9.7878,-40.373 z"
       style="fill:#ffdfba;fill-opacity:1;stroke:#667765;stroke-width:1;stroke-linecap:round;stroke-linejoin:round;stroke-opacity:1"
       id="path814" />
    <path
       d="m 230.61385,327.26411 25.08,-14.681 -39.149,-29.974 z"
       style="fill:#c79a83;fill-opacity:1;stroke:#667765;stroke-width:1;stroke-linecap:round;stroke-linejoin:round;stroke-opacity:1"
       id="path816" />
    <path
       d="m 97.87305,325.42911 40.9848,-6.117 -31.197,-34.256 z"
       style="fill:#ffebd2;fill-opacity:1;stroke:#667765;stroke-width:1;stroke-linecap:round;stroke-linejoin:round;stroke-opacity:1"
       id="path818" />
    <path
       d="m 69.122948,348.06211 28.750102,-22.633 -33.032102,-21.41 z"
       style="fill:#ffdfba;fill-opacity:1;stroke:#667765;stroke-width:1;stroke-linecap:round;stroke-linejoin:round;stroke-opacity:1"
       id="path820" />
    <path
       d="m 38.537348,325.42911 30.5856,22.633 -4.282,-44.043 z"
       style="fill:#a07765;fill-opacity:1;stroke:#667765;stroke-width:1;stroke-linecap:round;stroke-linejoin:round;stroke-opacity:1"
       id="path822" />
    <path
       d="m 216.54485,282.60911 -19.575,67.288 33.644,-22.633 z"
       style="fill:#c79a83;fill-opacity:1;stroke:#667765;stroke-width:1;stroke-linecap:round;stroke-linejoin:round;stroke-opacity:1"
       id="path824" />
    <path
       d="m 162.10285,290.56211 34.867,59.335 19.575,-67.288 z"
       style="fill:#c79a83;fill-opacity:1;stroke:#667765;stroke-width:1;stroke-linecap:round;stroke-linejoin:round;stroke-opacity:1"
       id="path826" />
    <path
       d="m 230.61385,327.26411 25.08,24.468 v -39.149 z"
       style="fill:#999999;fill-opacity:1;stroke:#667765;stroke-width:1;stroke-linecap:round;stroke-linejoin:round;stroke-opacity:1"
       id="path828" />
    <path
       d="m 138.85785,319.31211 58.112,30.585 -34.867,-59.335 z"
       style="fill:#c79a83;fill-opacity:1;stroke:#667765;stroke-width:1;stroke-linecap:round;stroke-linejoin:round;stroke-opacity:1"
       id="path830" />
    <path
       d="m 97.87305,325.42911 38.5378,33.644 2.447,-39.761 z"
       style="fill:#ffebd2;fill-opacity:1;stroke:#667765;stroke-width:1;stroke-linecap:round;stroke-linejoin:round;stroke-opacity:1"
       id="path832" />
    <path
       d="m 229.39085,365.80211 26.303,-14.07 -25.08,-24.468 z"
       style="fill:#999999;fill-opacity:1;stroke:#667765;stroke-width:1;stroke-linecap:round;stroke-linejoin:round;stroke-opacity:1"
       id="path834" />
    <path
       d="m 196.96985,349.89711 32.421,15.905 1.223,-38.538 z"
       style="fill:#999999;fill-opacity:1;stroke:#667765;stroke-width:1;stroke-linecap:round;stroke-linejoin:round;stroke-opacity:1"
       id="path836" />
    <path
       d="m 136.41085,359.07311 60.559,-9.176 -58.112,-30.585 z"
       style="fill:#c79a83;fill-opacity:1;stroke:#667765;stroke-width:1;stroke-linecap:round;stroke-linejoin:round;stroke-opacity:1"
       id="path838" />
    <path
       d="m 94.81465,384.76511 3.0584,-59.336 -28.750102,22.633 z"
       style="fill:#ffdfba;fill-opacity:1;stroke:#667765;stroke-width:1;stroke-linecap:round;stroke-linejoin:round;stroke-opacity:1"
       id="path840" />
    <path
       d="m 94.81465,384.76511 41.5962,-25.692 -38.5378,-33.644 z"
       style="fill:#ffdfba;fill-opacity:1;stroke:#667765;stroke-width:1;stroke-linecap:round;stroke-linejoin:round;stroke-opacity:1"
       id="path842" />
    <path
       d="m 229.39085,365.80211 26.303,19.574 v -33.644 z"
       style="fill:#c79a83;fill-opacity:1;stroke:#667765;stroke-width:1;stroke-linecap:round;stroke-linejoin:round;stroke-opacity:1"
       id="path844" />
    <path
       d="m 204.31085,387.82311 25.08,-22.021 -32.421,-15.905 z"
       style="fill:#999999;fill-opacity:1;stroke:#667765;stroke-width:1;stroke-linecap:round;stroke-linejoin:round;stroke-opacity:1"
       id="path846" />
    <path
       d="m 136.41085,359.07311 34.867,40.984 25.692,-50.16 z"
       style="fill:#c79a83;fill-opacity:1;stroke:#667765;stroke-width:1;stroke-linecap:round;stroke-linejoin:round;stroke-opacity:1"
       id="path848" />
    <path
       d="m 145.58685,392.71711 25.691,7.34 -34.867,-40.984 z"
       style="fill:#a07765;fill-opacity:1;stroke:#667765;stroke-width:1;stroke-linecap:round;stroke-linejoin:round;stroke-opacity:1"
       id="path850" />
    <path
       d="m 171.27785,400.05711 33.033,-12.234 -7.341,-37.926 z"
       style="fill:#c79a83;fill-opacity:1;stroke:#667765;stroke-width:1;stroke-linecap:round;stroke-linejoin:round;stroke-opacity:1"
       id="path852" />
    <path
       d="m 94.81465,384.76511 50.7722,7.952 -9.176,-33.644 z"
       style="fill:#ffdfba;fill-opacity:1;stroke:#667765;stroke-width:1;stroke-linecap:round;stroke-linejoin:round;stroke-opacity:1"
       id="path854" />
    <path
       d="m 229.39085,365.80211 4.893,48.936 21.41,-29.362 z"
       style="fill:#c79a83;fill-opacity:1;stroke:#667765;stroke-width:1;stroke-linecap:round;stroke-linejoin:round;stroke-opacity:1"
       id="path856" />
    <path
       d="m 204.31085,387.82311 29.973,26.915 -4.893,-48.936 z"
       style="fill:#c79a83;fill-opacity:1;stroke:#667765;stroke-width:1;stroke-linecap:round;stroke-linejoin:round;stroke-opacity:1"
       id="path858" />
    <path
       d="m 171.27785,400.05711 31.809,9.788 1.224,-22.022 z"
       style="fill:#c79a83;fill-opacity:1;stroke:#667765;stroke-width:1;stroke-linecap:round;stroke-linejoin:round;stroke-opacity:1"
       id="path860" />
    <path
       d="m 203.08685,409.84511 31.197,4.893 -29.973,-26.915 z"
       style="fill:#bb907b;fill-opacity:1;stroke:#667765;stroke-width:1;stroke-linecap:round;stroke-linejoin:round;stroke-opacity:1"
       id="path862" />
    <path
       d="m 94.81465,384.76511 32.4202,36.091 18.352,-28.139 z"
       style="fill:#ffdfba;fill-opacity:1;stroke:#667765;stroke-width:1;stroke-linecap:round;stroke-linejoin:round;stroke-opacity:1"
       id="path864" />
    <path
       d="m 234.28385,414.73811 21.41,10.399 v -39.761 z"
       style="fill:#c79a83;fill-opacity:1;stroke:#667765;stroke-width:1;stroke-linecap:round;stroke-linejoin:round;stroke-opacity:1"
       id="path866" />
    <path
       d="m 145.58685,392.71711 18.962,44.655 6.729,-37.315 z"
       style="fill:#a07765;fill-opacity:1;stroke:#667765;stroke-width:1;stroke-linecap:round;stroke-linejoin:round;stroke-opacity:1"
       id="path868" />
    <path
       d="m 127.23485,420.85611 37.314,16.516 -18.962,-44.655 z"
       style="fill:#ffdfba;fill-opacity:1;stroke:#667765;stroke-width:1;stroke-linecap:round;stroke-linejoin:round;stroke-opacity:1"
       id="path870" />
    <path
       d="m 164.54885,437.37211 38.538,-27.527 -31.809,-9.788 z"
       style="fill:#a07765;fill-opacity:1;stroke:#667765;stroke-width:1;stroke-linecap:round;stroke-linejoin:round;stroke-opacity:1"
       id="path872" />
    <path
       d="m 234.28385,414.73811 20.798,40.373 0.612,-29.974 z"
       style="fill:#a07765;fill-opacity:1;stroke:#667765;stroke-width:1;stroke-linecap:round;stroke-linejoin:round;stroke-opacity:1"
       id="path874" />
    <path
       d="m 203.08685,409.84511 51.995,45.266 -20.798,-40.373 z"
       style="fill:#a07765;fill-opacity:1;stroke:#667765;stroke-width:1;stroke-linecap:round;stroke-linejoin:round;stroke-opacity:1"
       id="path876" />
    <path
       d="m 164.54885,437.37211 90.533,17.739 -51.995,-45.266 z"
       style="fill:#a07765;fill-opacity:1;stroke:#667765;stroke-width:1;stroke-linecap:round;stroke-linejoin:round;stroke-opacity:1"
       id="path878" />
    <path
       d="m 255.08185,220.21511 v -69.123 33.032 z"
       style="fill:none;stroke:#667765;stroke-width:1;stroke-linecap:round;stroke-linejoin:round;stroke-opacity:1"
       id="path896" />
    <path
       d="m 418.40815,116.83641 -38.5373,18.3517 -28.139,-20.18671 z"
       style="fill:#a07765;fill-opacity:1;stroke:#667765;stroke-width:1;stroke-linecap:round;stroke-linejoin:round;stroke-opacity:1"
       id="path712-9" />
    <path
       d="m 351.73185,115.0014 -33.032,44.65471 -17.74,-50.16011 z"
       style="fill:#ffebd2;fill-opacity:1;stroke:#667765;stroke-width:1;stroke-linecap:round;stroke-linejoin:round;stroke-opacity:1"
       id="path714-2" />
    <path
       d="m 418.40815,116.83641 -18.9633,44.6547 -19.574,-26.303 z"
       style="fill:#a07765;fill-opacity:1;stroke:#667765;stroke-width:1;stroke-linecap:round;stroke-linejoin:round;stroke-opacity:1"
       id="path716-4" />
    <path
       d="m 300.95985,109.496 -45.878,41.59611 0.612,-38.53761 z"
       style="fill:#ffebd2;fill-opacity:1;stroke:#667765;stroke-width:1;stroke-linecap:round;stroke-linejoin:round;stroke-opacity:1"
       id="path718-1" />
    <path
       d="m 452.66395,141.91611 -53.2191,19.575 18.9633,-44.65471 z"
       style="fill:#a07765;fill-opacity:1;stroke:#667765;stroke-width:1;stroke-linecap:round;stroke-linejoin:round;stroke-opacity:1"
       id="path720-9" />
    <path
       d="m 318.69985,159.65611 -63.618,-8.564 45.878,-41.59611 z"
       style="fill:#ffebd2;fill-opacity:1;stroke:#667765;stroke-width:1;stroke-linecap:round;stroke-linejoin:round;stroke-opacity:1"
       id="path722-7" />
    <path
       d="m 379.87085,135.18811 -61.171,24.468 33.032,-44.65471 z"
       style="fill:#ffebd2;fill-opacity:1;stroke:#667765;stroke-width:1;stroke-linecap:round;stroke-linejoin:round;stroke-opacity:1"
       id="path724-0" />
    <path
       d="m 371.91785,192.68811 7.953,-57.5 19.574,26.303 z"
       style="fill:#ffebd2;fill-opacity:1;stroke:#667765;stroke-width:1;stroke-linecap:round;stroke-linejoin:round;stroke-opacity:1"
       id="path726-5" />
    <path
       d="m 371.91785,192.68811 -53.218,-33.032 61.171,-24.468 z"
       style="fill:#ffebd2;fill-opacity:1;stroke:#667765;stroke-width:1;stroke-linecap:round;stroke-linejoin:round;stroke-opacity:1"
       id="path728-1" />
    <path
       d="m 452.66395,141.91611 -36.7025,52.607 -16.5166,-33.032 z"
       style="fill:#a07765;fill-opacity:1;stroke:#667765;stroke-width:1;stroke-linecap:round;stroke-linejoin:round;stroke-opacity:1"
       id="path730-6" />
    <path
       d="m 318.69985,159.65611 -63.618,24.468 v -33.032 z"
       style="fill:#ffebd2;fill-opacity:1;stroke:#667765;stroke-width:1;stroke-linecap:round;stroke-linejoin:round;stroke-opacity:1"
       id="path732-5" />
    <path
       d="m 474.07375,173.11411 -58.1123,21.409 36.7025,-52.607 z"
       style="fill:#a07765;fill-opacity:1;stroke:#667765;stroke-width:1;stroke-linecap:round;stroke-linejoin:round;stroke-opacity:1"
       id="path734-0" />
    <path
       d="m 371.91785,192.68811 -42.207,9.176 -11.011,-42.208 z"
       style="fill:#ffebd2;fill-opacity:1;stroke:#667765;stroke-width:1;stroke-linecap:round;stroke-linejoin:round;stroke-opacity:1"
       id="path736-0" />
    <path
       d="m 415.96145,194.52311 -44.0436,-1.835 27.527,-31.197 z"
       style="fill:#ffebd2;fill-opacity:1;stroke:#667765;stroke-width:1;stroke-linecap:round;stroke-linejoin:round;stroke-opacity:1"
       id="path738-0" />
    <path
       d="m 318.69985,159.65611 -28.75,58.112 -34.868,-33.644 z"
       style="fill:#ffebd2;fill-opacity:1;stroke:#667765;stroke-width:1;stroke-linecap:round;stroke-linejoin:round;stroke-opacity:1"
       id="path740-9" />
    <path
       d="m 329.71085,201.86411 -39.761,15.904 28.75,-58.112 z"
       style="fill:#ffebd2;fill-opacity:1;stroke:#667765;stroke-width:1;stroke-linecap:round;stroke-linejoin:round;stroke-opacity:1"
       id="path742-5" />
    <path
       d="m 289.94985,217.76811 -34.868,2.447 v -36.091 z"
       style="fill:#ffebd2;fill-opacity:1;stroke:#667765;stroke-width:1;stroke-linecap:round;stroke-linejoin:round;stroke-opacity:1"
       id="path744-7" />
    <path
       d="m 362.74285,225.10911 -33.032,-23.245 42.207,-9.176 z"
       style="fill:#ffebd2;fill-opacity:1;stroke:#667765;stroke-width:1;stroke-linecap:round;stroke-linejoin:round;stroke-opacity:1"
       id="path746-5" />
    <path
       d="m 474.07375,173.11411 -42.8196,56.277 -15.2927,-34.868 z"
       style="fill:#a07765;fill-opacity:1;stroke:#667765;stroke-width:1;stroke-linecap:round;stroke-linejoin:round;stroke-opacity:1"
       id="path748-5" />
    <path
       d="m 362.74285,225.10911 -23.857,15.904 -9.175,-39.149 z"
       style="fill:#ffebd2;fill-opacity:1;stroke:#667765;stroke-width:1;stroke-linecap:round;stroke-linejoin:round;stroke-opacity:1"
       id="path750-7" />
    <path
       d="m 496.70695,211.65111 -65.4528,17.74 42.8196,-56.277 z"
       style="fill:#a07765;fill-opacity:1;stroke:#667765;stroke-width:1;stroke-linecap:round;stroke-linejoin:round;stroke-opacity:1"
       id="path752-1" />
    <path
       d="m 371.91785,192.68811 18.964,53.219 -28.139,-20.798 z"
       style="fill:#ffebd2;fill-opacity:1;stroke:#667765;stroke-width:1;stroke-linecap:round;stroke-linejoin:round;stroke-opacity:1"
       id="path754-4" />
    <path
       d="m 415.96145,194.52311 -25.0796,51.384 -18.964,-53.219 z"
       style="fill:#ffebd2;fill-opacity:1;stroke:#667765;stroke-width:1;stroke-linecap:round;stroke-linejoin:round;stroke-opacity:1"
       id="path756-1" />
    <path
       d="m 431.25415,229.39111 -40.3723,16.516 25.0796,-51.384 z"
       style="fill:#ffebd2;fill-opacity:1;stroke:#667765;stroke-width:1;stroke-linecap:round;stroke-linejoin:round;stroke-opacity:1"
       id="path758-8" />
    <path
       d="m 338.88585,241.01311 -48.936,-23.245 39.761,-15.904 z"
       style="fill:#ffebd2;fill-opacity:1;stroke:#667765;stroke-width:1;stroke-linecap:round;stroke-linejoin:round;stroke-opacity:1"
       id="path760-5" />
    <path
       d="m 338.88585,241.01311 -40.373,9.176 -8.563,-32.421 z"
       style="fill:#ffebd2;fill-opacity:1;stroke:#667765;stroke-width:1;stroke-linecap:round;stroke-linejoin:round;stroke-opacity:1"
       id="path762-1" />
    <path
       d="m 320.53485,264.87011 -22.022,-14.681 40.373,-9.176 z"
       style="fill:#ffebd2;fill-opacity:1;stroke:#667765;stroke-width:1;stroke-linecap:round;stroke-linejoin:round;stroke-opacity:1"
       id="path764-8" />
    <path
       d="m 298.51285,250.18911 -43.431,-29.974 34.868,-2.447 z"
       style="fill:#ffebd2;fill-opacity:1;stroke:#667765;stroke-width:1;stroke-linecap:round;stroke-linejoin:round;stroke-opacity:1"
       id="path766-1" />
    <path
       d="m 298.51285,250.18911 -42.819,12.846 -0.612,-42.82 z"
       style="fill:#818182;fill-opacity:1;stroke:#667765;stroke-width:1;stroke-linecap:round;stroke-linejoin:round;stroke-opacity:1"
       id="path768-5" />
    <path
       d="m 339.49785,267.92811 -18.963,-3.058 18.351,-23.857 z"
       style="fill:#ffebd2;fill-opacity:1;stroke:#667765;stroke-width:1;stroke-linecap:round;stroke-linejoin:round;stroke-opacity:1"
       id="path770-6" />
    <path
       d="m 496.70695,211.65111 -53.2186,51.384 -12.2342,-33.644 z"
       style="fill:#a07765;fill-opacity:1;stroke:#667765;stroke-width:1;stroke-linecap:round;stroke-linejoin:round;stroke-opacity:1"
       id="path772-5" />
    <path
       d="m 443.48835,263.03511 -52.6065,-17.128 40.3723,-16.516 z"
       style="fill:#ffebd2;fill-opacity:1;stroke:#667765;stroke-width:1;stroke-linecap:round;stroke-linejoin:round;stroke-opacity:1"
       id="path780-2" />
    <path
       d="m 512.6114,252.63611 -69.12305,10.399 53.2186,-51.384 z"
       style="fill:#a07765;fill-opacity:1;stroke:#667765;stroke-width:1;stroke-linecap:round;stroke-linejoin:round;stroke-opacity:1"
       id="path782-0" />
    <path
       d="m 320.53485,264.87011 -25.692,17.739 3.67,-32.42 z"
       style="fill:#c79a83;fill-opacity:1;stroke:#667765;stroke-width:1;stroke-linecap:round;stroke-linejoin:round;stroke-opacity:1"
       id="path784-9" />
    <path
       d="m 443.48835,263.03511 -39.7615,22.021 -12.845,-39.149 z"
       style="fill:#ffebd2;fill-opacity:1;stroke:#667765;stroke-width:1;stroke-linecap:round;stroke-linejoin:round;stroke-opacity:1"
       id="path786-5" />
    <path
       d="m 403.72685,285.05611 -28.75,-7.34 15.905,-31.809 z"
       style="fill:#ffebd2;fill-opacity:1;stroke:#667765;stroke-width:1;stroke-linecap:round;stroke-linejoin:round;stroke-opacity:1"
       id="path788-1" />
    <path
       d="m 294.84285,282.60911 -39.149,-19.574 42.819,-12.846 z"
       style="fill:#818182;fill-opacity:1;stroke:#667765;stroke-width:1;stroke-linecap:round;stroke-linejoin:round;stroke-opacity:1"
       id="path790-6" />
    <path
       d="m 489.97815,286.89111 -46.4898,-23.856 69.12305,-10.399 z"
       style="fill:#a07765;fill-opacity:1;stroke:#667765;stroke-width:1;stroke-linecap:round;stroke-linejoin:round;stroke-opacity:1"
       id="path792-5" />
    <path
       d="m 374.97685,277.71611 -25.692,12.846 -9.787,-22.634 z"
       style="fill:#ffebd2;fill-opacity:1;stroke:#667765;stroke-width:1;stroke-linecap:round;stroke-linejoin:round;stroke-opacity:1"
       id="path794-9" />
    <path
       d="m 294.84663,282.61278 -38.54485,0.30611 v -19.88756 z"
       style="fill:#818182;fill-opacity:1;stroke:#667765;stroke-width:0.992442;stroke-linecap:round;stroke-linejoin:round;stroke-opacity:1"
       id="path796-9" />
    <path
       d="m 489.97815,286.89111 -43.4314,17.128 -3.0584,-40.984 z"
       style="fill:#a07765;fill-opacity:1;stroke:#667765;stroke-width:1;stroke-linecap:round;stroke-linejoin:round;stroke-opacity:1"
       id="path798-7" />
    <path
       d="m 349.28485,290.56211 -28.75,-25.692 18.963,3.058 z"
       style="fill:#ffebd2;fill-opacity:1;stroke:#667765;stroke-width:1;stroke-linecap:round;stroke-linejoin:round;stroke-opacity:1"
       id="path800-8" />
    <path
       d="m 446.54675,304.01911 -42.8199,-18.963 39.7615,-22.021 z"
       style="fill:#ffebd2;fill-opacity:1;stroke:#667765;stroke-width:1;stroke-linecap:round;stroke-linejoin:round;stroke-opacity:1"
       id="path802-6" />
    <path
       d="m 372.52985,319.31211 -23.245,-28.75 25.692,-12.846 z"
       style="fill:#ffebd2;fill-opacity:1;stroke:#667765;stroke-width:1;stroke-linecap:round;stroke-linejoin:round;stroke-opacity:1"
       id="path804-3" />
    <path
       d="m 349.28485,290.56211 -54.442,-7.953 25.692,-17.739 z"
       style="fill:#c79a83;fill-opacity:1;stroke:#667765;stroke-width:1;stroke-linecap:round;stroke-linejoin:round;stroke-opacity:1"
       id="path806-8" />
    <path
       d="m 294.84284,282.60911 -39.14898,29.974 v -29.668 z"
       style="fill:#818182;fill-opacity:1;stroke:#667765;stroke-width:1;stroke-linecap:round;stroke-linejoin:round;stroke-opacity:1"
       id="path808-3" />
    <path
       d="m 403.72685,285.05611 -31.197,34.256 2.447,-41.596 z"
       style="fill:#ffebd2;fill-opacity:1;stroke:#667765;stroke-width:1;stroke-linecap:round;stroke-linejoin:round;stroke-opacity:1"
       id="path810-2" />
    <path
       d="m 472.85035,325.42911 -26.3036,-21.41 43.4314,-17.128 z"
       style="fill:#a07765;fill-opacity:1;stroke:#667765;stroke-width:1;stroke-linecap:round;stroke-linejoin:round;stroke-opacity:1"
       id="path812-0" />
    <path
       d="m 446.54675,304.01911 -33.0321,21.41 -9.7878,-40.373 z"
       style="fill:#ffdfba;fill-opacity:1;stroke:#667765;stroke-width:1;stroke-linecap:round;stroke-linejoin:round;stroke-opacity:1"
       id="path814-2" />
    <path
       d="m 280.77385,327.26411 -25.08,-14.681 39.149,-29.974 z"
       style="fill:#c79a83;fill-opacity:1;stroke:#667765;stroke-width:1;stroke-linecap:round;stroke-linejoin:round;stroke-opacity:1"
       id="path816-9" />
    <path
       d="m 413.51465,325.42911 -40.9848,-6.117 31.197,-34.256 z"
       style="fill:#ffebd2;fill-opacity:1;stroke:#667765;stroke-width:1;stroke-linecap:round;stroke-linejoin:round;stroke-opacity:1"
       id="path818-2" />
    <path
       d="m 442.26475,348.06211 -28.7501,-22.633 33.0321,-21.41 z"
       style="fill:#ffdfba;fill-opacity:1;stroke:#667765;stroke-width:1;stroke-linecap:round;stroke-linejoin:round;stroke-opacity:1"
       id="path820-9" />
    <path
       d="m 472.85035,325.42911 -30.5856,22.633 4.282,-44.043 z"
       style="fill:#a07765;fill-opacity:1;stroke:#667765;stroke-width:1;stroke-linecap:round;stroke-linejoin:round;stroke-opacity:1"
       id="path822-7" />
    <path
       d="m 294.84285,282.60911 19.575,67.288 -33.644,-22.633 z"
       style="fill:#c79a83;fill-opacity:1;stroke:#667765;stroke-width:1;stroke-linecap:round;stroke-linejoin:round;stroke-opacity:1"
       id="path824-6" />
    <path
       d="m 349.28485,290.56211 -34.867,59.335 -19.575,-67.288 z"
       style="fill:#c79a83;fill-opacity:1;stroke:#667765;stroke-width:1;stroke-linecap:round;stroke-linejoin:round;stroke-opacity:1"
       id="path826-7" />
    <path
       d="m 280.77976,327.26263 -24.48012,24.47543 v -39.1609 z"
       style="fill:#999999;fill-opacity:1;stroke:#667765;stroke-width:0.988118;stroke-linecap:round;stroke-linejoin:round;stroke-opacity:1"
       id="path828-7" />
    <path
       d="m 372.52985,319.31211 -58.112,30.585 34.867,-59.335 z"
       style="fill:#c79a83;fill-opacity:1;stroke:#667765;stroke-width:1;stroke-linecap:round;stroke-linejoin:round;stroke-opacity:1"
       id="path830-7" />
    <path
       d="m 413.51465,325.42911 -38.5378,33.644 -2.447,-39.761 z"
       style="fill:#ffebd2;fill-opacity:1;stroke:#667765;stroke-width:1;stroke-linecap:round;stroke-linejoin:round;stroke-opacity:1"
       id="path832-6" />
    <path
       d="m 281.99685,365.80211 -26.303,-14.07 25.08,-24.468 z"
       style="fill:#999999;fill-opacity:1;stroke:#667765;stroke-width:1;stroke-linecap:round;stroke-linejoin:round;stroke-opacity:1"
       id="path834-6" />
    <path
       d="m 314.41785,349.89711 -32.421,15.905 -1.223,-38.538 z"
       style="fill:#999999;fill-opacity:1;stroke:#667765;stroke-width:1;stroke-linecap:round;stroke-linejoin:round;stroke-opacity:1"
       id="path836-6" />
    <path
       d="m 374.97685,359.07311 -60.559,-9.176 58.112,-30.585 z"
       style="fill:#c79a83;fill-opacity:1;stroke:#667765;stroke-width:1;stroke-linecap:round;stroke-linejoin:round;stroke-opacity:1"
       id="path838-7" />
    <path
       d="m 416.57305,384.76511 -3.0584,-59.336 28.7501,22.633 z"
       style="fill:#ffdfba;fill-opacity:1;stroke:#667765;stroke-width:1;stroke-linecap:round;stroke-linejoin:round;stroke-opacity:1"
       id="path840-7" />
    <path
       d="m 416.57305,384.76511 -41.5962,-25.692 38.5378,-33.644 z"
       style="fill:#ffdfba;fill-opacity:1;stroke:#667765;stroke-width:1;stroke-linecap:round;stroke-linejoin:round;stroke-opacity:1"
       id="path842-5" />
    <path
       d="m 281.99685,365.80211 -26.303,19.574 v -33.644 z"
       style="fill:#c79a83;fill-opacity:1;stroke:#667765;stroke-width:1;stroke-linecap:round;stroke-linejoin:round;stroke-opacity:1"
       id="path844-4" />
    <path
       d="m 307.07685,387.82311 -25.08,-22.021 32.421,-15.905 z"
       style="fill:#999999;fill-opacity:1;stroke:#667765;stroke-width:1;stroke-linecap:round;stroke-linejoin:round;stroke-opacity:1"
       id="path846-8" />
    <path
       d="m 374.97685,359.07311 -34.867,40.984 -25.692,-50.16 z"
       style="fill:#c79a83;fill-opacity:1;stroke:#667765;stroke-width:1;stroke-linecap:round;stroke-linejoin:round;stroke-opacity:1"
       id="path848-7" />
    <path
       d="m 365.80085,392.71711 -25.691,7.34 34.867,-40.984 z"
       style="fill:#a07765;fill-opacity:1;stroke:#667765;stroke-width:1;stroke-linecap:round;stroke-linejoin:round;stroke-opacity:1"
       id="path850-9" />
    <path
       d="m 340.10985,400.05711 -33.033,-12.234 7.341,-37.926 z"
       style="fill:#c79a83;fill-opacity:1;stroke:#667765;stroke-width:1;stroke-linecap:round;stroke-linejoin:round;stroke-opacity:1"
       id="path852-1" />
    <path
       d="m 416.57305,384.76511 -50.7722,7.952 9.176,-33.644 z"
       style="fill:#ffdfba;fill-opacity:1;stroke:#667765;stroke-width:1;stroke-linecap:round;stroke-linejoin:round;stroke-opacity:1"
       id="path854-8" />
    <path
       d="m 281.99685,365.80211 -4.893,48.936 -21.41,-29.362 z"
       style="fill:#c79a83;fill-opacity:1;stroke:#667765;stroke-width:1;stroke-linecap:round;stroke-linejoin:round;stroke-opacity:1"
       id="path856-5" />
    <path
       d="m 307.07685,387.82311 -29.973,26.915 4.893,-48.936 z"
       style="fill:#c79a83;fill-opacity:1;stroke:#667765;stroke-width:1;stroke-linecap:round;stroke-linejoin:round;stroke-opacity:1"
       id="path858-3" />
    <path
       d="m 340.10985,400.05711 -31.809,9.788 -1.224,-22.022 z"
       style="fill:#c79a83;fill-opacity:1;stroke:#667765;stroke-width:1;stroke-linecap:round;stroke-linejoin:round;stroke-opacity:1"
       id="path860-4" />
    <path
       d="m 308.30085,409.84511 -31.197,4.893 29.973,-26.915 z"
       style="fill:#bb907b;fill-opacity:1;stroke:#667765;stroke-width:1;stroke-linecap:round;stroke-linejoin:round;stroke-opacity:1"
       id="path862-3" />
    <path
       d="m 416.57305,384.76511 -32.4202,36.091 -18.352,-28.139 z"
       style="fill:#ffdfba;fill-opacity:1;stroke:#667765;stroke-width:1;stroke-linecap:round;stroke-linejoin:round;stroke-opacity:1"
       id="path864-5" />
    <path
       d="m 277.10385,414.73811 -21.41,10.399 v -39.761 z"
       style="fill:#c79a83;fill-opacity:1;stroke:#667765;stroke-width:1;stroke-linecap:round;stroke-linejoin:round;stroke-opacity:1"
       id="path866-8" />
    <path
       d="m 365.80085,392.71711 -18.962,44.655 -6.729,-37.315 z"
       style="fill:#a07765;fill-opacity:1;stroke:#667765;stroke-width:1;stroke-linecap:round;stroke-linejoin:round;stroke-opacity:1"
       id="path868-3" />
    <path
       d="m 384.15285,420.85611 -37.314,16.516 18.962,-44.655 z"
       style="fill:#ffdfba;fill-opacity:1;stroke:#667765;stroke-width:1;stroke-linecap:round;stroke-linejoin:round;stroke-opacity:1"
       id="path870-6" />
    <path
       d="m 346.83885,437.37211 -38.538,-27.527 31.809,-9.788 z"
       style="fill:#a07765;fill-opacity:1;stroke:#667765;stroke-width:1;stroke-linecap:round;stroke-linejoin:round;stroke-opacity:1"
       id="path872-1" />
    <path
       d="m 277.10385,414.73811 -20.798,40.373 -0.612,-29.974 z"
       style="fill:#a07765;fill-opacity:1;stroke:#667765;stroke-width:1;stroke-linecap:round;stroke-linejoin:round;stroke-opacity:1"
       id="path874-7" />
    <path
       d="m 308.30085,409.84511 -51.995,45.266 20.798,-40.373 z"
       style="fill:#a07765;fill-opacity:1;stroke:#667765;stroke-width:1;stroke-linecap:round;stroke-linejoin:round;stroke-opacity:1"
       id="path876-1" />
    <path
       d="m 346.83885,437.37211 -90.533,17.739 51.995,-45.266 z"
       style="fill:#a07765;fill-opacity:1;stroke:#667765;stroke-width:1;stroke-linecap:round;stroke-linejoin:round;stroke-opacity:1"
       id="path878-4" />
    <path
       d="m 255.08185,220.21511 v -69.123 33.032 z"
       style="fill:none;stroke:#667765;stroke-width:1;stroke-linecap:round;stroke-linejoin:round;stroke-opacity:1"
       id="path896-2" />
    <path
       style="fill:#333333;fill-opacity:1;stroke:#667765;stroke-width:0.611708;stroke-opacity:1"
       d="m 129.32847,261.40968 c -4.21829,-8.43138 -7.58479,-15.3856 -7.48112,-15.45382 0.10367,-0.0682 6.06227,-4.45814 13.24132,-9.7554 7.17905,-5.29725 13.40856,-9.54705 13.84336,-9.44399 0.43479,0.10306 5.73232,3.47771 11.77228,7.49924 l 10.98175,7.31186 -0.27157,12.56866 c -0.14936,6.91277 -0.44754,12.74909 -0.66262,12.96962 -0.21508,0.22052 -6.5846,2.09674 -14.15449,4.16939 -7.5699,2.07264 -15.07651,4.14999 -16.68137,4.61633 l -2.91793,0.84789 z"
       id="path2309" />
    <path
       style="fill:#e3dbdb;fill-opacity:1;stroke:#667765;stroke-width:0.611708;stroke-opacity:1"
       d="m 357.23718,272.00317 -16.82199,-4.69562 -0.37081,-12.84135 c -0.20395,-7.06274 -0.34158,-12.87171 -0.30585,-12.90881 0.73878,-0.76727 22.55709,-14.9194 23.00121,-14.9194 0.44438,0 22.44464,15.83685 26.80062,19.29238 0.20542,0.16295 -15.08452,30.89922 -15.33063,30.81807 -0.0828,-0.0273 -7.72046,-2.16269 -16.97255,-4.74527 z"
       id="path2311" />
    <path
       style="fill:#333333;stroke:#667765;stroke-width:0.611708;stroke-opacity:1"
       d="m 357.17471,271.46547 -16.27333,-4.62041 -0.36686,-12.30425 -0.36687,-12.30425 1.4805,-1.22341 c 0.81428,-0.67288 5.90164,-4.06526 11.30525,-7.53861 l 9.82474,-6.31519 6.25251,4.44771 c 3.43888,2.44624 9.34935,6.73164 13.13438,9.52311 l 6.88187,5.0754 -7.48777,14.99041 c -4.11828,8.24472 -7.62803,14.96779 -7.79944,14.94015 -0.17141,-0.0276 -7.63465,-2.12944 -16.58498,-4.67066 z"
       id="path182" />
  </g>
</svg>
